<?xml version="1.0" encoding="UTF-8"?>
<svg width="315px" height="315px" viewBox="0 0 315 315" version="1.1" xmlns="http://www.w3.org/2000/svg" xmlns:xlink="http://www.w3.org/1999/xlink">
    <!-- Generator: Sketch 50.2 (55047) - http://www.bohemiancoding.com/sketch -->
    <title>Untitled</title>
    <desc>Created with Sketch.</desc>
    <defs>
        <path d="M25.5859375,175.542969 L25.5859375,166.613281 C31.187528,168.957043 35.9804488,170.128906 39.9648438,170.128906 C42.7539202,170.128906 44.9511638,169.507819 46.5566406,168.265625 C48.1621174,167.023431 48.9648438,165.335948 48.9648438,163.203125 C48.9648438,161.515617 48.4609425,160.091803 47.453125,158.931641 C46.4453075,157.771479 44.5351703,156.394539 41.7226562,154.800781 L38.2421875,152.867188 C33.5781017,150.242174 30.2851659,147.728528 28.3632812,145.326172 C26.4413966,142.923816 25.4804688,140.117204 25.4804688,136.90625 C25.4804688,132.617166 27.0566249,129.171888 30.2089844,126.570312 C33.3613439,123.968737 37.5273179,122.667969 42.7070312,122.667969 C46.8554895,122.667969 51.531224,123.265619 56.734375,124.460938 L56.734375,132.792969 C51.4140359,130.800771 47.2070467,129.804688 44.1132812,129.804688 C41.7226443,129.804688 39.8066478,130.337885 38.3652344,131.404297 C36.9238209,132.470708 36.203125,133.871085 36.203125,135.605469 C36.203125,137.035163 36.7070262,138.289057 37.7148438,139.367188 C38.7226613,140.445318 40.6210798,141.769523 43.4101562,143.339844 L47.1367188,145.414062 C52.1523688,148.226577 55.6093655,150.816394 57.5078125,153.183594 C59.4062595,155.550793 60.3554688,158.433577 60.3554688,161.832031 C60.3554688,166.66018 58.5625179,170.445299 54.9765625,173.1875 C51.3906071,175.929701 46.445344,177.300781 40.140625,177.300781 C35.9687291,177.300781 31.1172152,176.71485 25.5859375,175.542969 Z M69.6367188,176 L69.6367188,137.398438 L80.0429688,137.398438 L80.0429688,176 L69.6367188,176 Z M69.6367188,130.894531 L69.6367188,122.210938 L80.0429688,122.210938 L80.0429688,130.894531 L69.6367188,130.894531 Z M93.0507812,176 L93.0507812,137.398438 L103.457031,137.398438 L103.457031,144.675781 C106.855486,139.238254 111.238254,136.519531 116.605469,136.519531 C120.050798,136.519531 122.769521,137.609364 124.761719,139.789062 C126.753916,141.968761 127.75,144.945294 127.75,148.71875 L127.75,176 L117.34375,176 L117.34375,151.285156 C117.34375,146.902322 115.89064,144.710938 112.984375,144.710938 C109.679671,144.710938 106.503921,147.042945 103.457031,151.707031 L103.457031,176 L93.0507812,176 Z M140.617188,187.988281 L141.460938,180.429688 C145.750021,182.398447 149.839824,183.382812 153.730469,183.382812 C157.574238,183.382812 160.351554,182.562508 162.0625,180.921875 C163.773446,179.281242 164.628906,176.621112 164.628906,172.941406 L164.628906,167.667969 C162.097644,173.222684 157.914092,176 152.078125,176 C147.484352,176 143.839857,174.28322 141.144531,170.849609 C138.449205,167.415998 137.101562,162.769561 137.101562,156.910156 C137.101562,150.746063 138.613266,145.806659 141.636719,142.091797 C144.660171,138.376935 148.679662,136.519531 153.695312,136.519531 C157.632832,136.519531 161.277327,138.113265 164.628906,141.300781 L165.71875,137.398438 L175.070312,137.398438 L175.070312,166.859375 C175.070312,172.742217 174.712894,176.984362 173.998047,179.585938 C173.2832,182.187513 171.894542,184.402335 169.832031,186.230469 C166.363264,189.230484 161.476594,190.730469 155.171875,190.730469 C150.69529,190.730469 145.843776,189.816415 140.617188,187.988281 Z M164.628906,161.621094 L164.628906,147.382812 C162.121081,144.546861 159.496107,143.128906 156.753906,143.128906 C154.128893,143.128906 152.042976,144.324207 150.496094,146.714844 C148.949211,149.105481 148.175781,152.316386 148.175781,156.347656 C148.175781,163.894569 150.601538,167.667969 155.453125,167.667969 C158.804704,167.667969 161.863267,165.652364 164.628906,161.621094 Z" id="path-1"></path>
        <path d="M219.261719,174.699219 C214.316382,176.152351 209.628928,176.878906 205.199219,176.878906 C198.753874,176.878906 193.667987,175.0508 189.941406,171.394531 C186.214825,167.738263 184.351562,162.746125 184.351562,156.417969 C184.351562,150.441376 186.056624,145.630878 189.466797,141.986328 C192.87697,138.341779 197.382784,136.519531 202.984375,136.519531 C208.632841,136.519531 212.757799,138.300763 215.359375,141.863281 C217.960951,145.425799 219.261719,151.062461 219.261719,158.773438 L195.320312,158.773438 C196.023441,166.132849 200.066369,169.8125 207.449219,169.8125 C210.941424,169.8125 214.878884,169.003914 219.261719,167.386719 L219.261719,174.699219 Z M195.179688,152.902344 L209.03125,152.902344 C209.03125,146.316373 206.910177,143.023438 202.667969,143.023438 C198.355447,143.023438 195.859378,146.316373 195.179688,152.902344 Z M230.019531,176 L230.019531,120.488281 L240.425781,120.488281 L240.425781,176 L230.019531,176 Z" id="path-2"></path>
        <path d="M36.4375,21.4921875 C40.1718937,21.4921875 42.9960842,23.0156098 44.9101562,26.0625 C46.8242283,29.1093902 47.78125,33.6171577 47.78125,39.5859375 C47.78125,45.5547173 46.8242283,50.0624848 44.9101562,53.109375 C42.9960842,56.1562652 40.1718937,57.6796875 36.4375,57.6796875 C32.7031063,57.6796875 29.882822,56.1562652 27.9765625,53.109375 C26.070303,50.0624848 25.1171875,45.5547173 25.1171875,39.5859375 C25.1171875,33.6171577 26.070303,29.1093902 27.9765625,26.0625 C29.882822,23.0156098 32.7031063,21.4921875 36.4375,21.4921875 Z M36.4375,53.9296875 C38.6562611,53.9296875 40.3085883,52.7500118 41.3945312,50.390625 C42.4804742,48.0312382 43.0234375,44.4297117 43.0234375,39.5859375 C43.0234375,37.0077996 42.8671891,34.6796979 42.5546875,32.6015625 L31.3984375,50.0625 C32.5703184,52.6406379 34.2499891,53.9296875 36.4375,53.9296875 Z M36.4375,25.2421875 C34.234364,25.2421875 32.5898492,26.4218632 31.5039062,28.78125 C30.4179633,31.1406368 29.875,34.7421633 29.875,39.5859375 C29.875,41.7890735 30.023436,43.8515529 30.3203125,45.7734375 L41.2421875,28.359375 C40.0546816,26.2812396 38.4531351,25.2421875 36.4375,25.2421875 Z" id="path-3"></path>
        <path d="M23.1455078,218.854004 L23.1455078,216.001465 C24.9349048,216.750167 26.4659767,217.124512 27.7387695,217.124512 C28.6297245,217.124512 29.3316218,216.926109 29.8444824,216.529297 C30.3573431,216.132485 30.6137695,215.593428 30.6137695,214.912109 C30.6137695,214.373044 30.4528011,213.918215 30.1308594,213.547607 C29.8089177,213.177 29.198735,212.737144 28.300293,212.228027 L27.1884766,211.610352 C25.6985603,210.771806 24.6466502,209.968835 24.0327148,209.201416 C23.4187795,208.433997 23.1118164,207.53744 23.1118164,206.511719 C23.1118164,205.141595 23.6153107,204.04102 24.6223145,203.209961 C25.6293182,202.378902 26.9601154,201.963379 28.6147461,201.963379 C29.939948,201.963379 31.4335854,202.154295 33.0957031,202.536133 L33.0957031,205.197754 C31.3961504,204.561357 30.052251,204.243164 29.0639648,204.243164 C28.3002892,204.243164 27.6882347,204.413491 27.2277832,204.75415 C26.7673317,205.09481 26.5371094,205.542152 26.5371094,206.096191 C26.5371094,206.552899 26.6980778,206.953449 27.0200195,207.297852 C27.3419612,207.642254 27.9484005,208.065264 28.8393555,208.566895 L30.0297852,209.229492 C31.6320067,210.127934 32.7363251,210.955237 33.3427734,211.711426 C33.9492218,212.467614 34.2524414,213.388504 34.2524414,214.474121 C34.2524414,216.016447 33.6796932,217.225582 32.5341797,218.101562 C31.3886661,218.977543 29.8089293,219.415527 27.7949219,219.415527 C26.4622329,219.415527 24.9124437,219.228355 23.1455078,218.854004 Z M37.2172852,219 L37.2172852,206.668945 L40.5415039,206.668945 L40.5415039,219 L37.2172852,219 Z M37.2172852,204.591309 L37.2172852,201.817383 L40.5415039,201.817383 L40.5415039,204.591309 L37.2172852,204.591309 Z M44.6967773,219 L44.6967773,206.668945 L48.0209961,206.668945 L48.0209961,208.993652 C49.1066135,207.256664 50.5066646,206.388184 52.2211914,206.388184 C53.3217828,206.388184 54.1902637,206.736325 54.8266602,207.432617 C55.4630566,208.12891 55.78125,209.079747 55.78125,210.285156 L55.78125,219 L52.4570312,219 L52.4570312,211.10498 C52.4570312,209.704908 51.9928432,209.004883 51.0644531,209.004883 C50.0087838,209.004883 48.9943083,209.74983 48.0209961,211.239746 L48.0209961,219 L44.6967773,219 Z M59.8916016,222.82959 L60.1611328,220.415039 C61.5312569,221.043948 62.8377217,221.358398 64.0805664,221.358398 C65.3084371,221.358398 66.1956353,221.096357 66.7421875,220.572266 C67.2887397,220.048174 67.5620117,219.198411 67.5620117,218.022949 L67.5620117,216.338379 C66.7534139,218.112802 65.4170015,219 63.5527344,219 C62.0852791,219 60.9210655,218.451584 60.0600586,217.354736 C59.1990517,216.257888 58.7685547,214.77361 58.7685547,212.901855 C58.7685547,210.93277 59.25146,209.354905 60.2172852,208.168213 C61.1831103,206.981521 62.4671144,206.388184 64.0693359,206.388184 C65.3271547,206.388184 66.4913683,206.897293 67.5620117,207.915527 L67.9101562,206.668945 L70.8974609,206.668945 L70.8974609,216.080078 C70.8974609,217.959319 70.7832856,219.314449 70.5549316,220.145508 C70.3265776,220.976567 69.8829786,221.684079 69.2241211,222.268066 C68.1160426,223.226405 66.5550231,223.705566 64.5410156,223.705566 C63.1109955,223.705566 61.5612063,223.413577 59.8916016,222.82959 Z M67.5620117,214.406738 L67.5620117,209.858398 C66.7609009,208.952469 65.9223677,208.499512 65.0463867,208.499512 C64.2078409,208.499512 63.5415064,208.881344 63.0473633,209.64502 C62.5532202,210.408695 62.3061523,211.434401 62.3061523,212.722168 C62.3061523,215.132987 63.0810469,216.338379 64.6308594,216.338379 C65.7015027,216.338379 66.6785438,215.694505 67.5620117,214.406738 Z M74.9741211,219 L74.9741211,201.26709 L78.2983398,201.26709 L78.2983398,219 L74.9741211,219 Z M92.4936523,218.584473 C90.9138918,219.048668 89.416511,219.280762 88.0014648,219.280762 C85.9425353,219.280762 84.317877,218.696783 83.1274414,217.528809 C81.9370058,216.360834 81.3417969,214.766123 81.3417969,212.744629 C81.3417969,210.83544 81.8864692,209.298753 82.9758301,208.134521 C84.065191,206.97029 85.5045483,206.388184 87.2939453,206.388184 C89.0983163,206.388184 90.4160115,206.957188 91.2470703,208.095215 C92.0781292,209.233241 92.4936523,211.033842 92.4936523,213.49707 L84.8457031,213.49707 C85.0703136,215.847994 86.3618046,217.023438 88.7202148,217.023438 C89.8357803,217.023438 91.0935802,216.765139 92.4936523,216.248535 L92.4936523,218.584473 Z M84.8007812,211.621582 L89.2255859,211.621582 C89.2255859,209.51773 88.5480211,208.46582 87.1928711,208.46582 C85.81526,208.46582 85.0179047,209.51773 84.8007812,211.621582 Z" id="path-4"></path>
        <path d="M99.3330078,219 L99.3330078,202.378906 L109.721191,202.378906 L109.721191,204.658691 L102.791992,204.658691 L102.791992,209.296875 L108.474609,209.296875 L108.474609,211.520508 L102.791992,211.520508 L102.791992,216.641602 L110.249023,216.641602 L110.249023,219 L99.3330078,219 Z M113.146484,219 L113.146484,201.26709 L116.470703,201.26709 L116.470703,219 L113.146484,219 Z M130.666016,218.584473 C129.086255,219.048668 127.588874,219.280762 126.173828,219.280762 C124.114899,219.280762 122.49024,218.696783 121.299805,217.528809 C120.109369,216.360834 119.51416,214.766123 119.51416,212.744629 C119.51416,210.83544 120.058832,209.298753 121.148193,208.134521 C122.237554,206.97029 123.676912,206.388184 125.466309,206.388184 C127.27068,206.388184 128.588375,206.957188 129.419434,208.095215 C130.250492,209.233241 130.666016,211.033842 130.666016,213.49707 L123.018066,213.49707 C123.242677,215.847994 124.534168,217.023438 126.892578,217.023438 C128.008144,217.023438 129.265944,216.765139 130.666016,216.248535 L130.666016,218.584473 Z M122.973145,211.621582 L127.397949,211.621582 C127.397949,209.51773 126.720384,208.46582 125.365234,208.46582 C123.987623,208.46582 123.190268,209.51773 122.973145,211.621582 Z M134.102539,219 L134.102539,206.668945 L137.291992,206.668945 L137.291992,208.993652 C138.265304,207.256664 139.650382,206.388184 141.447266,206.388184 C142.375656,206.388184 143.13932,206.616534 143.738281,207.073242 C144.337243,207.52995 144.704101,208.170081 144.838867,208.993652 C145.991868,207.256664 147.384432,206.388184 149.016602,206.388184 C151.270194,206.388184 152.396973,207.63101 152.396973,210.116699 L152.396973,219 L149.20752,219 L149.20752,211.206055 C149.20752,209.746086 148.720871,209.016113 147.747559,209.016113 C146.751785,209.016113 145.782231,209.734856 144.838867,211.172363 L144.838867,219 L141.649414,219 L141.649414,211.206055 C141.649414,209.738599 141.159022,209.004883 140.178223,209.004883 C139.197423,209.004883 138.235356,209.727369 137.291992,211.172363 L137.291992,219 L134.102539,219 Z M166.446289,218.584473 C164.866529,219.048668 163.369148,219.280762 161.954102,219.280762 C159.895172,219.280762 158.270514,218.696783 157.080078,217.528809 C155.889642,216.360834 155.294434,214.766123 155.294434,212.744629 C155.294434,210.83544 155.839106,209.298753 156.928467,208.134521 C158.017828,206.97029 159.457185,206.388184 161.246582,206.388184 C163.050953,206.388184 164.368648,206.957188 165.199707,208.095215 C166.030766,209.233241 166.446289,211.033842 166.446289,213.49707 L158.79834,213.49707 C159.02295,215.847994 160.314441,217.023438 162.672852,217.023438 C163.788417,217.023438 165.046217,216.765139 166.446289,216.248535 L166.446289,218.584473 Z M158.753418,211.621582 L163.178223,211.621582 C163.178223,209.51773 162.500658,208.46582 161.145508,208.46582 C159.767897,208.46582 158.970541,209.51773 158.753418,211.621582 Z M169.882813,219 L169.882813,206.668945 L173.207031,206.668945 L173.207031,208.993652 C174.292649,207.256664 175.6927,206.388184 177.407227,206.388184 C178.507818,206.388184 179.376299,206.736325 180.012695,207.432617 C180.649092,208.12891 180.967285,209.079747 180.967285,210.285156 L180.967285,219 L177.643066,219 L177.643066,211.10498 C177.643066,209.704908 177.178878,209.004883 176.250488,209.004883 C175.194819,209.004883 174.180343,209.74983 173.207031,211.239746 L173.207031,219 L169.882813,219 Z M191.344238,218.932617 C190.550615,219.164715 189.925458,219.280762 189.46875,219.280762 C186.586249,219.280762 185.14502,217.933119 185.14502,215.237793 L185.14502,208.746582 L183.763672,208.746582 L183.763672,206.668945 L185.14502,206.668945 L185.14502,204.591309 L188.469238,204.209473 L188.469238,206.668945 L191.108398,206.668945 L191.108398,208.746582 L188.469238,208.746582 L188.469238,214.799805 C188.469238,216.312182 189.086908,217.068359 190.322266,217.068359 C190.606772,217.068359 190.947426,217.015951 191.344238,216.911133 L191.344238,218.932617 Z" id="path-5"></path>
        <path d="M197.711914,219 L197.711914,202.378906 L203.506836,202.378906 C205.52833,202.378906 206.971431,202.717689 207.836181,203.395264 C208.700932,204.072839 209.1333,205.205233 209.1333,206.79248 C209.1333,208.589364 208.554937,209.987544 207.398193,210.987061 C206.241449,211.986577 204.622406,212.486328 202.541015,212.486328 L201.103515,212.486328 L201.103515,219 L197.711914,219 Z M201.103515,210.206543 L201.777343,210.206543 C202.960292,210.206543 203.894283,209.931399 204.579345,209.381104 C205.264407,208.830808 205.606933,208.083989 205.606933,207.140625 C205.606933,205.485994 204.555023,204.658691 202.451172,204.658691 L201.103515,204.658691 L201.103515,210.206543 Z M217.859375,217.674805 C216.751296,218.745448 215.564622,219.280762 214.299316,219.280762 C213.221186,219.280762 212.345218,218.951338 211.671386,218.29248 C210.997555,217.633623 210.660644,216.780116 210.660644,215.731934 C210.660644,214.369297 211.205316,213.319258 212.294677,212.581787 C213.384038,211.844316 214.943186,211.475586 216.972168,211.475586 L217.859375,211.475586 L217.859375,210.352539 C217.859375,209.072259 217.129401,208.432129 215.669433,208.432129 C214.374179,208.432129 213.063971,208.798987 211.738769,209.532715 L211.738769,207.241699 C213.24366,206.672686 214.733553,206.388184 216.208496,206.388184 C219.4354,206.388184 221.048828,207.672188 221.048828,210.240234 L221.048828,215.698242 C221.048828,216.664067 221.359534,217.146973 221.980957,217.146973 C222.093262,217.146973 222.239257,217.131999 222.418945,217.102051 L222.497558,218.966309 C221.793779,219.175945 221.172366,219.280762 220.6333,219.280762 C219.270663,219.280762 218.394696,218.745448 218.005371,217.674805 L217.859375,217.674805 Z M217.859375,215.88916 L217.859375,213.384766 L217.073242,213.384766 C214.924468,213.384766 213.850097,214.058587 213.850097,215.40625 C213.850097,215.862958 214.005451,216.246662 214.316162,216.557373 C214.626873,216.868084 215.010577,217.023438 215.467285,217.023438 C216.245935,217.023438 217.04329,216.645349 217.859375,215.88916 Z M231.695312,218.932617 C230.901688,219.164715 230.276532,219.280762 229.819824,219.280762 C226.937322,219.280762 225.496093,217.933119 225.496093,215.237793 L225.496093,208.746582 L224.114746,208.746582 L224.114746,206.668945 L225.496093,206.668945 L225.496093,204.591309 L228.820312,204.209473 L228.820312,206.668945 L231.459472,206.668945 L231.459472,208.746582 L228.820312,208.746582 L228.820312,214.799805 C228.820312,216.312182 229.437982,217.068359 230.673339,217.068359 C230.957846,217.068359 231.2985,217.015951 231.695312,216.911133 L231.695312,218.932617 Z M241.016601,218.932617 C240.222977,219.164715 239.597821,219.280762 239.141113,219.280762 C236.258612,219.280762 234.817382,217.933119 234.817382,215.237793 L234.817382,208.746582 L233.436035,208.746582 L233.436035,206.668945 L234.817382,206.668945 L234.817382,204.591309 L238.141601,204.209473 L238.141601,206.668945 L240.780761,206.668945 L240.780761,208.746582 L238.141601,208.746582 L238.141601,214.799805 C238.141601,216.312182 238.759271,217.068359 239.994629,217.068359 C240.279135,217.068359 240.619789,217.015951 241.016601,216.911133 L241.016601,218.932617 Z M254.021484,218.584473 C252.441724,219.048668 250.944343,219.280762 249.529297,219.280762 C247.470367,219.280762 245.845709,218.696783 244.655273,217.528809 C243.464837,216.360834 242.869629,214.766123 242.869629,212.744629 C242.869629,210.83544 243.414301,209.298753 244.503662,208.134521 C245.593023,206.97029 247.03238,206.388184 248.821777,206.388184 C250.626148,206.388184 251.943843,206.957188 252.774902,208.095215 C253.605961,209.233241 254.021484,211.033842 254.021484,213.49707 L246.373535,213.49707 C246.598145,215.847994 247.889636,217.023438 250.248047,217.023438 C251.363612,217.023438 252.621412,216.765139 254.021484,216.248535 L254.021484,218.584473 Z M246.328613,211.621582 L250.753418,211.621582 C250.753418,209.51773 250.075853,208.46582 248.720703,208.46582 C247.343092,208.46582 246.545736,209.51773 246.328613,211.621582 Z M257.458007,219 L257.458007,206.668945 L260.782226,206.668945 L260.782226,208.993652 C261.643233,207.256664 262.953441,206.388184 264.71289,206.388184 C264.922527,206.388184 265.128417,206.410644 265.330566,206.455566 L265.330566,209.42041 C264.858884,209.248209 264.4209,209.162109 264.016601,209.162109 C262.691399,209.162109 261.613285,209.832187 260.782226,211.172363 L260.782226,219 L257.458007,219 Z M267.913574,219 L267.913574,206.668945 L271.237793,206.668945 L271.237793,208.993652 C272.32341,207.256664 273.723461,206.388184 275.437988,206.388184 C276.538579,206.388184 277.40706,206.736325 278.043457,207.432617 C278.679853,208.12891 278.998047,209.079747 278.998047,210.285156 L278.998047,219 L275.673828,219 L275.673828,211.10498 C275.673828,209.704908 275.20964,209.004883 274.28125,209.004883 C273.22558,209.004883 272.211105,209.74983 271.237793,211.239746 L271.237793,219 L267.913574,219 Z" id="path-6"></path>
    </defs>
    <g id="Page-1" stroke="none" stroke-width="1" fill="none" fill-rule="evenodd">
        <g id="logo" transform="translate(2.000000, 2.000000)">
            <rect id="Rectangle" stroke="#000000" stroke-width="5" fill="#FFFFFF" fill-rule="nonzero" x="0.5" y="0.5" width="310" height="310"></rect>
            <g id="Sing">
                <use fill="#000000" xlink:href="#path-1"></use>
                <use fill="#2196F3" xlink:href="#path-1"></use>
            </g>
            <g id="el">
                <use fill="#000000" xlink:href="#path-2"></use>
                <use fill="#E91E63" xlink:href="#path-2"></use>
            </g>
            <g id="0" fill="#000000">
                <use xlink:href="#path-3"></use>
                <use xlink:href="#path-3"></use>
            </g>
            <g id="Single" fill="#000000">
                <use xlink:href="#path-4"></use>
                <use xlink:href="#path-4"></use>
            </g>
            <g id="Element" fill="#000000">
                <use xlink:href="#path-5"></use>
                <use xlink:href="#path-5"></use>
            </g>
            <g id="Pattern" fill="#000000">
                <use xlink:href="#path-6"></use>
                <use xlink:href="#path-6"></use>
            </g>
        </g>
    </g>
</svg>